<svg xmlns="http://www.w3.org/2000/svg" width="387.648" height="47.249" viewBox="0 0 387.648 47.249"><g transform="translate(6.985 -60.432)"><path d="M811.759,595.042a4.5,4.5,0,0,0-4.445-3.276,4.916,4.916,0,0,0-1.151.136,6.764,6.764,0,0,0-6.082-3.586,7.2,7.2,0,0,0-2,.28,8.423,8.423,0,0,0-7.089-3.709,8.27,8.27,0,0,0-7.78,5.048,6.007,6.007,0,0,0-2.761-.664,5.481,5.481,0,0,0-5.679,5.26,4.936,4.936,0,0,0,.027.51Z" transform="translate(-781.759 -499.975)" fill="#b3f2ff" opacity="0.5"/><path d="M1155.7,261.083a2.948,2.948,0,0,1,2.911-2.146,3.219,3.219,0,0,1,.754.089,4.429,4.429,0,0,1,3.983-2.349,4.718,4.718,0,0,1,1.308.183,5.516,5.516,0,0,1,4.642-2.429,5.415,5.415,0,0,1,5.095,3.306,3.933,3.933,0,0,1,1.808-.435,3.589,3.589,0,0,1,3.719,3.445,3.253,3.253,0,0,1-.018.334Z" transform="translate(-1108.727 -194.001)" fill="#7d7d7d" opacity="0.5"/><path d="M1155.7,265.093a4.726,4.726,0,0,1,4.666-3.439,5.161,5.161,0,0,1,1.209.143,7.1,7.1,0,0,1,6.384-3.765,7.56,7.56,0,0,1,2.1.294,8.841,8.841,0,0,1,7.441-3.893,8.68,8.68,0,0,1,8.166,5.3,6.3,6.3,0,0,1,2.9-.7,5.753,5.753,0,0,1,5.96,5.521,5.182,5.182,0,0,1-.028.536Z" transform="translate(-898.83 -175.86)" fill="#7d7d7d" opacity="0.5"/><path d="M1612.019,621.887a1.3,1.3,0,0,1,1.279-.943,1.415,1.415,0,0,1,.331.039,1.946,1.946,0,0,1,1.75-1.032,2.072,2.072,0,0,1,.575.081,2.423,2.423,0,0,1,2.039-1.067,2.379,2.379,0,0,1,2.238,1.452,1.728,1.728,0,0,1,.794-.191,1.577,1.577,0,0,1,1.634,1.513,1.458,1.458,0,0,1-.008.147Z" transform="translate(-1514.663 -524.752)" fill="#8fc1cc" opacity="0.5"/><path d="M2251.826,672.878a2.642,2.642,0,0,1,2.452-2.289,2.174,2.174,0,0,1,.636.1,3.717,3.717,0,0,1,3.356-2.506,3.2,3.2,0,0,1,1.1.2,4.477,4.477,0,0,1,3.911-2.591,4.672,4.672,0,0,1,4.293,3.527,2.768,2.768,0,0,1,1.523-.464,3.437,3.437,0,0,1,3.134,3.675c0,.12-.006.239-.015.357Z" transform="translate(-2105.688 -599.87)" fill="#646464" opacity="0.5"/><path d="M2251.826,672.848a3.132,3.132,0,0,1,3.093-2.28,3.416,3.416,0,0,1,.8.095,4.706,4.706,0,0,1,4.232-2.5,5.008,5.008,0,0,1,1.39.195,5.861,5.861,0,0,1,4.933-2.581,5.755,5.755,0,0,1,5.414,3.513,4.178,4.178,0,0,1,1.921-.462,3.814,3.814,0,0,1,3.951,3.66,3.416,3.416,0,0,1-.019.355Z" transform="translate(-2068.888 -565.167)" fill="#8fc1cc" opacity="0.5"/><path d="M2251.826,671.311a2.451,2.451,0,0,1,2.42-1.784,2.673,2.673,0,0,1,.627.074,3.683,3.683,0,0,1,3.311-1.953,3.919,3.919,0,0,1,1.088.153,4.586,4.586,0,0,1,3.859-2.019,4.5,4.5,0,0,1,4.236,2.748,3.268,3.268,0,0,1,1.5-.361,2.984,2.984,0,0,1,3.092,2.864,2.683,2.683,0,0,1-.015.278Z" transform="translate(-1891.299 -581.948)" fill="#8fc1cc" opacity="0.5"/><path d="M2251.826,671.5a2.537,2.537,0,0,1,2.5-1.846,2.768,2.768,0,0,1,.649.077,3.812,3.812,0,0,1,3.427-2.021,4.058,4.058,0,0,1,1.126.158,4.745,4.745,0,0,1,3.994-2.09,4.659,4.659,0,0,1,4.384,2.845,3.385,3.385,0,0,1,1.556-.374,3.089,3.089,0,0,1,3.2,2.964,2.668,2.668,0,0,1-.016.288Z" transform="translate(-1922.078 -601.561)" fill="#8fc1cc" opacity="0.5"/><path d="M2251.826,668.666a1.278,1.278,0,0,1,1.262-.931,1.4,1.4,0,0,1,.327.039,1.921,1.921,0,0,1,1.728-1.019,2.042,2.042,0,0,1,.567.08,2.393,2.393,0,0,1,2.014-1.053,2.349,2.349,0,0,1,2.21,1.434,1.7,1.7,0,0,1,.784-.188,1.557,1.557,0,0,1,1.613,1.494,1.423,1.423,0,0,1-.008.145Z" transform="translate(-2027.17 -594.045)" fill="#fff" opacity="0.5"/></g></svg>