<svg xmlns="http://www.w3.org/2000/svg" width="927.206" height="383.901" viewBox="0 0 927.206 383.901"><g transform="translate(-865.947 -468.496)"><g transform="translate(865.947 468.496)"><g transform="translate(0)"><path d="M3152.941,1696.018l-678.025-1.492-30.557-.062-39.937-.08-3.931-.008h0l-12.662-.025-7.188-.015-12.556-.025-5.43-.012-105.473-.215s-2.75-24.58.664-58.283c.941-9.238,2.338-19.16,4.384-29.452q1.029-5.146,2.272-10.4c1.438-6.039,3.107-12.162,5.051-18.311q.209-.668.423-1.342c2.181-6.776,4.691-13.577,7.579-20.324,11.619-27.172,35.255-46.795,62.192-66.965,30.215-22.625,66.216-44.122,124.13-43.549,234.783,2.328,216.764-125.055,381.111-133.207,66.931-3.32,107.74,56.787,95.7,142.661C2920.326,1600.173,3149.96,1494.863,3152.941,1696.018Z" transform="translate(-2225.735 -1312.117)" fill="#ebebeb"/><g transform="translate(522.087 132.799)"><path d="M3279.048,1921.15,3297.4,1739.9h52.025s23.066,1.562,14.786,40.29-35.486,117.217-27.206,140.959Z" transform="translate(-3179.357 -1739.901)" fill="#f9ddbf"/><path d="M3371.349,1881.636c6.888-33.812,17.975-90.849,23.854-121.236a25.307,25.307,0,0,1,24.849-20.5h81.836a25.31,25.31,0,0,1,24.937,29.638l-22.664,130.625a25.312,25.312,0,0,1-27.71,20.832l-83.072-9.152A25.307,25.307,0,0,1,3371.349,1881.636Z" transform="translate(-3370.833 -1739.901)" fill="#e8c4a3"/></g><g transform="translate(191.993 288.456)"><path d="M2917.623,2250.465c-1.652,18.894-12.323,24.728-17.012,24.225s-32.132-10.977-32.726-7.134,15.918,16.4,27.482,16.991c0,0-21.838,24.084-36.348,17.132s-15.751-17.968-24.8-22.1-16.768-4.121-13.034.095,20.108,8.308,25.28,17.461c1.221,2.159,2.414,4.154,3.325,5.911l-30.557-.062c-9.689-4.814-17.851-11.456-18.459-18.614q-.072-.82-.132-1.568l-.941-11.013s-15.692-18.3-7.535-33.489a23.209,23.209,0,0,1,6.219-7.213s14.624-8.855,26.549-8.132c0,0-9.241,15.5-11.842,24.7-.919,3.246-1.01,5.711.412,6.444,1.557.807,3.574-1.531,5.66-5.28,5.225-9.387,10.889-27.647,10.889-27.647s8.792-.853,18.8-.981c4.489-.058,9.223.029,13.516.4,4.74.417,8.938,1.186,11.669,2.5,0,0-.6.488-1.6,1.327-1.492,1.251-3.884,3.278-6.543,5.63-7.891,6.98-18.146,16.823-14.313,17.709,3.1.718,12.844-5.069,21.512-10.813,8.071-5.343,15.208-10.652,15.208-10.652S2919.276,2231.571,2917.623,2250.465Z" transform="translate(-2775.368 -2220.179)" fill="#82b378"/><g transform="translate(0 30.65)"><path d="M2884.453,2313.241s-84.125-3.242-102.7,20.817c0,0-4.109,12.3-16.753,23.509l-1.97,5.37s14.577-15.37,19.794-16.3C2782.821,2346.638,2774.663,2316.832,2884.453,2313.241Z" transform="translate(-2757.414 -2313.095)" fill="#82b378"/><path d="M2757.132,2443.479c-.722.792-1.8,1.866-3.348,3.293l-.032.032c-.536.5-1.057,1.032-1.565,1.6a30.78,30.78,0,0,0-2.242,2.815l-3.932-.008a47.272,47.272,0,0,1,7.582-7.6l.011-.006C2753.913,2443.424,2761.158,2439.044,2757.132,2443.479Z" transform="translate(-2746.013 -2399.143)" fill="#82b378"/></g></g><g transform="translate(0 220.874)"><path d="M2288.477,2103.194s33.939-19.006,18.1-44.8c0,0-12.671-15.838-26.247-19.911,0,0,7.241,38.465,0,39.37s-4.977-43.443-4.977-43.443-35.751-17.2-49.779-15.839c0,0,22.174,37.56,14.934,36.656s-32.13-38.919-32.13-38.919-36.656-6.788-42.538,14.934,3.62,32.583,9.051,33.94,40.276.905,39.37,5.431-24.437,11.765-37.56,7.692c0,0,14.481,35.751,33.487,33.941s24.889-13.576,36.656-14.482,20.364,2.263,14.481,5.431-25.794,1.038-35.3,9.118-17.2,13.057.452,16.677,49.327,1.358,55.662-12.219Z" transform="translate(-2163.983 -2015.303)" fill="#a8d29f"/><g transform="translate(18.6 22.726)"><path d="M2220.369,2084.2s95.032,30.772,105.894,65.165c0,0-.453,15.386,9.051,33.035v6.788s-9.955-23.079-15.386-26.247C2319.927,2162.938,2341.2,2133.071,2220.369,2084.2Z" transform="translate(-2220.369 -2084.197)" fill="#82b378"/><path d="M2568.4,2402.621l-5.431-.011c-.171-7.855-1.08-16.673-3.76-23.39v0c-.336-.843-.7-1.649-1.091-2.418l-.011-.025c-1.127-2.207-1.889-3.833-2.371-5.01l0,0c-2.778-6.812,3.862,1.553,3.862,1.553A63.7,63.7,0,0,1,2568.4,2402.621Z" transform="translate(-2444.654 -2275.111)" fill="#82b378"/></g></g><g transform="translate(149.077 166.695)"><path d="M2645.325,1966.917s-44.739-25.053-23.861-59.056c0,0,16.7-20.878,34.6-26.247,0,0-9.544,50.7,0,51.9s6.562-57.267,6.562-57.267,47.126-22.667,65.618-20.877c0,0-29.229,49.511-19.685,48.318s42.354-51.3,42.354-51.3,48.318-8.948,56.072,19.685-4.771,42.95-11.93,44.739-53.091,1.193-51.9,7.158,32.213,15.51,49.512,10.141c0,0-19.088,47.126-44.143,44.74s-32.809-17.9-48.319-19.089-26.844,2.983-19.089,7.158,34,1.369,46.529,12.019,22.669,17.211-.6,21.983-65.021,1.79-73.373-16.106Z" transform="translate(-2615.913 -1851.06)" fill="#a8d29f"/><g transform="translate(5.784 29.957)"><path d="M2820.427,1941.875s-125.271,40.564-139.587,85.9c0,0,.6,20.282-11.931,43.546v8.949s13.124-30.424,20.282-34.6C2689.191,2045.671,2661.155,2006.3,2820.427,1941.875Z" transform="translate(-2657.211 -1941.875)" fill="#82b378"/><path d="M2650.24,2320.921c0,.007-.008.01-.008.014-.635,1.557-1.641,3.709-3.129,6.623,0,.007-.007.011-.01.018-.518,1.01-.992,2.076-1.433,3.181,0,0,0,0,0,.008-4.289,10.747-5.138,25.578-4.978,37.267l-7.188-.015a84.1,84.1,0,0,1,11.655-45.038l0,0C2645.339,2322.738,2653.854,2312.06,2650.24,2320.921Z" transform="translate(-2633.448 -2193.533)" fill="#82b378"/></g></g><g transform="translate(384.224 61.887)"><path d="M3538.245,1927.472c7.775-3.69,75.688-7.573,81.421-9.668s48.6-81.041,56.1-85.58l.012-.007a15.805,15.805,0,0,1,2.036-1.015c9.1-4.135,48.594-18.024,119.733,11.929a453.058,453.058,0,0,1-1.614,69.79c-4.549,42.2-17.559,87.413-52.6,84.583-1.587-.123-3.134-.264-4.656-.414-61.061-5.647-76.485-22.116-76.485-22.116l4.859-51.086a.008.008,0,0,1,0,0l-.014.01c-14.952,16.1-29.814,29.194-33.364,30.219-6.925,1.994-79.011-2.728-91.131-8.356S3538.245,1927.472,3538.245,1927.472Z" transform="translate(-3535.762 -1729.292)" fill="#2b478b"/><path d="M3639.382,1781.871l.017,4.464s-1.238,13.958,15.95,16.023,30.222-5.4,29.773-16.171c-1.535-8.343-3.227-14.075-3.332-20.976a48.551,48.551,0,0,1,.624-8.358l-33.309-.717-9.814,1.588Z" transform="translate(-3456.838 -1683.564)" fill="#ea9e6a"/><path d="M3647.533,1759.181l.09,24.147a28.172,28.172,0,0,0,12,2.668c15.309.024,30.548-24.614,31.031-27.685Z" transform="translate(-3465.08 -1685.021)" fill="#d88d59"/><path d="M3630.461,1653.543s42.649,8.684,47.647-17.959,13.87-43.465-13.148-50.136a86.982,86.982,0,0,0-10.137-1.9c-18.687-2.411-24.59,5.5-27.928,12.892C3623.065,1604.921,3619.5,1650.6,3630.461,1653.543Z" transform="translate(-3449.969 -1567.651)" fill="#ea9e6a"/><path d="M3585.6,1545.1a89.414,89.414,0,0,0,25.939-6.977c11.4-4.934,25.757.541,30.416,3.006a6.935,6.935,0,0,0-1.132-2.808,6.263,6.263,0,0,1,2.4,3.564c.215.16.311.27.255.306a8.023,8.023,0,0,1,3.9.258s-1.067-.154-1.45.531a.635.635,0,0,1-.171.188c17.753,8.612,20.264,41.129,14.538,47.617-6.89,7.805-18.394,25.314-18.394,25.314a70.046,70.046,0,0,1,.575-15.4c1.261-6.877-4.679-6.886-12.178-10.024s-1.232-11.883-7.79-17.208-19.417-1.674-30.317-6.3C3583.261,1563.907,3585.6,1546.018,3585.6,1545.1Z" transform="translate(-3416.943 -1536.132)" fill="#233862"/><path d="M3542.9,2176.977c1.522.15,3.069.291,4.656.414,35.046,2.831,48.055-42.382,52.605-84.582C3595.921,2094.892,3538.469,2124.132,3542.9,2176.977Z" transform="translate(-3339.985 -1909.179)" fill="#233862"/><path d="M3663.607,2213.676s-12.358-8.021-16.447-7.29-20.817,5.644-23.116,8.378c-3.584,4.266-9.911,11.042-6.307,11.761s35.422,2.316,39.09,2S3669.041,2224.639,3663.607,2213.676Z" transform="translate(-3429.608 -1985.259)" fill="#ea9e6a"/><path d="M3318.07,1866.246s25.791,5.772,38.7,20.6c11.738,13.479,45.735,79.291,55.092,102.964,1.489,3.77-2.7,11.973-6.079,14.22-8.45,5.625-25.849,9.707-68.893,2.606l-38.479-5.61s-2.808-17.283,5.557-20.888l62.307-.865s-35.689-36.935-42.583-47.554S3318.07,1866.246,3318.07,1866.246Z" transform="translate(-3071.288 -1757.352)" fill="#2b478b"/><path d="M3933.428,2147.962c12.121,5.628,84.208,10.35,91.132,8.356,3.549-1.025,18.412-14.115,33.363-30.219-.737.1-24.262,3.446-38.752,15.973,0,0-8.164,3.635-30.385,1.6S3938.029,2140.89,3933.428,2147.962Z" transform="translate(-3926.654 -1931.488)" fill="#233862"/><path d="M3471.324,1858.957s26.987,6.031,35.847,13.5,7.14,9.5,7.14,9.5-3.4,5.163-17.124-.506-31.681-16.882-31.681-16.882S3466.052,1859.108,3471.324,1858.957Z" transform="translate(-3228.824 -1752.467)" fill="#ee9849"/><path d="M3828.342,1823.346s-1.625,3.921-4.085,4.455-26.922,7.122-30.133,5.242,5.762-9.531,18.656-10.078S3828.342,1823.346,3828.342,1823.346Z" transform="translate(-3650.905 -1728.233)" fill="#ee9849"/></g><g transform="translate(325.866 209.132)"><path d="M3922.169,2231.881a6.569,6.569,0,0,1,6.569,6.569H3846.33v-6.569Z" transform="translate(-3717.28 -2148.698)" fill="#b24940"/><path d="M4127.7,1979.713h-127.41l30.561,89.751h128.237Z" transform="translate(-3998.41 -1979.712)" fill="#b24940"/><path d="M4133.381,1979.709l31.388,89.752H4036.532l-30.56-89.752Z" transform="translate(-4005.971 -1979.709)" fill="#c65447"/><path d="M4245.924,2094.414a8.285,8.285,0,0,1,7.643,6.209c.792,3.429-1.346,6.209-4.775,6.209a8.285,8.285,0,0,1-7.643-6.209C4240.357,2097.194,4242.5,2094.414,4245.924,2094.414Z" transform="translate(-4172.456 -2056.576)" fill="#f9ddbf"/><path d="M4213.879,1979.709l30.56,89.752h59.655l-71.452-89.752Z" transform="translate(-4213.879 -1979.709)" fill="#b24940"/></g><g transform="translate(283.7 298.885)"><path d="M3536.3,2323.792H3024.024l13.218-36.546a53.726,53.726,0,0,1,50.529-35.451H3487.5a37.346,37.346,0,0,1,35.894,27.038Z" transform="translate(-3024.024 -2251.796)" fill="#d8772e"/><path d="M3881.367,2323.792h-494.1l-.954-18.42a50.927,50.927,0,0,1,50.86-53.577h395.4a37.332,37.332,0,0,1,35.887,27.038Z" transform="translate(-3266.761 -2251.796)" fill="#f1a34f"/><path d="M4188.713,2323.792H3886.971c-16.756-29.079-32.021-55.291-42.09-72h295.044a37.333,37.333,0,0,1,35.888,27.038Z" transform="translate(-3574.107 -2251.796)" fill="#ec9746"/></g></g></g></g></svg>